<?xml version="1.0" standalone="no"?>
<!DOCTYPE svg PUBLIC "-//W3C//DTD SVG 20010904//EN"
 "http://www.w3.org/TR/2001/REC-SVG-20010904/DTD/svg10.dtd">
<svg version="1.0" xmlns="http://www.w3.org/2000/svg"
 width="96.000000pt" height="96.000000pt" viewBox="0 0 96.000000 96.000000"
 preserveAspectRatio="xMidYMid meet">
<metadata>
Created by potrace 1.14, written by Peter Selinger 2001-2017
</metadata>
<g transform="translate(0.000000,96.000000) scale(0.100000,-0.100000)"
fill="#000000" stroke="none">
<path d="M409 878 c0 -2 -2 -10 -4 -18 -20 -92 -97 -144 -180 -121 -48 13 -60
4 -99 -74 l-28 -54 30 -26 c33 -28 52 -75 48 -115 -2 -14 -4 -31 -5 -39 0 -7
-17 -29 -37 -47 l-35 -34 21 -42 c12 -24 32 -56 44 -72 20 -24 27 -26 44 -17
30 16 84 14 121 -5 36 -18 71 -67 71 -100 0 -30 38 -36 157 -25 7 0 17 19 23
40 11 43 55 87 96 97 14 4 43 4 65 1 35 -5 42 -2 64 27 13 18 32 49 40 70 15
36 15 40 -3 60 -55 61 -56 142 -2 196 19 19 19 22 5 58 -9 20 -27 54 -41 74
-24 33 -28 36 -52 27 -62 -24 -140 15 -167 83 -9 24 -22 46 -28 50 -11 7 -146
12 -148 6z"/>
</g>
</svg>
